<svg xmlns="http://www.w3.org/2000/svg" version="1.1" xmlns:xlink="http://www.w3.org/1999/xlink" xmlns:svgjs="http://svgjs.dev/svgjs" width="1500" height="174" viewBox="0 0 1500 174"><g transform="matrix(1,0,0,1,-0.9090909090909918,0.5048155010556172)"><svg viewBox="0 0 396 46" data-background-color="#000000" preserveAspectRatio="xMidYMid meet" height="174" width="1500" xmlns="http://www.w3.org/2000/svg" xmlns:xlink="http://www.w3.org/1999/xlink"><g id="tight-bounds" transform="matrix(1,0,0,1,0.2400000000000091,-0.13345697154343839)"><svg viewBox="0 0 395.52 46.2669139430869" height="46.2669139430869" width="395.52"><g><svg viewBox="0 0 469.9493523032902 54.97346844818405" height="46.2669139430869" width="395.52"><g transform="matrix(1,0,0,1,74.42935230329014,0.6095739940180778)"><svg viewBox="0 0 395.52000000000004 53.754320460147895" height="53.754320460147895" width="395.52000000000004"><g id="textblocktransform"><svg viewBox="0 0 395.52000000000004 53.754320460147895" height="53.754320460147895" width="395.52000000000004" id="textblock"><g><svg viewBox="0 0 395.52000000000004 53.754320460147895" height="53.754320460147895" width="395.52000000000004"><g transform="matrix(1,0,0,1,0,0)"><svg width="395.52000000000004" viewBox="1.35 -35.6 304.22999999999996 41.35" height="53.754320460147895" data-palette-color="#3b82f6"><path d="M11.5 0.6L11.5 0.6Q6.75 0.6 4.05-2.05 1.35-4.7 1.35-9.4L1.35-9.4 5.6-9.4Q5.6-6.75 6.9-4.95 8.2-3.15 11.45-3.15L11.45-3.15Q14.6-3.15 15.83-4.9 17.05-6.65 17.05-9.25L17.05-9.25 17.05-35 21.25-35 21.25-9.25Q21.25-4.6 18.68-2 16.1 0.6 11.5 0.6ZM44.55 0.6L44.55 0.6Q39.4 0.6 35.52-1.68 31.65-3.95 29.47-8.05 27.3-12.15 27.3-17.5L27.3-17.5Q27.3-22.85 29.47-26.93 31.65-31 35.52-33.3 39.4-35.6 44.55-35.6L44.55-35.6Q49.75-35.6 53.62-33.3 57.5-31 59.65-26.93 61.8-22.85 61.8-17.5L61.8-17.5Q61.8-12.15 59.65-8.05 57.5-3.95 53.62-1.68 49.75 0.6 44.55 0.6ZM44.55-3.1L44.55-3.1Q48.4-3.1 51.32-4.83 54.25-6.55 55.87-9.78 57.5-13 57.5-17.5L57.5-17.5Q57.5-22 55.87-25.2 54.25-28.4 51.32-30.13 48.4-31.85 44.55-31.85L44.55-31.85Q40.7-31.85 37.77-30.13 34.85-28.4 33.22-25.2 31.6-22 31.6-17.5L31.6-17.5Q31.6-13 33.22-9.78 34.85-6.55 37.77-4.83 40.7-3.1 44.55-3.1ZM80.55 0L67.85 0 67.85-35 80.15-35Q83.85-35 86.27-33.83 88.7-32.65 89.9-30.63 91.1-28.6 91.1-26.1L91.1-26.1Q91.1-22.7 89.27-20.75 87.45-18.8 84.9-18.05L84.9-18.05Q86.85-17.7 88.45-16.5 90.05-15.3 90.97-13.5 91.9-11.7 91.9-9.55L91.9-9.55Q91.9-6.9 90.6-4.73 89.3-2.55 86.75-1.28 84.2 0 80.55 0L80.55 0ZM72.05-31.5L72.05-19.7 79.85-19.7Q83.2-19.7 85-21.28 86.8-22.85 86.8-25.65L86.8-25.65Q86.8-28.3 85.02-29.9 83.25-31.5 79.7-31.5L79.7-31.5 72.05-31.5ZM72.05-16.35L72.05-3.5 80.1-3.5Q83.7-3.5 85.65-5.18 87.6-6.85 87.6-9.85L87.6-9.85Q87.6-12.8 85.55-14.58 83.5-16.35 80-16.35L80-16.35 72.05-16.35ZM123.39 5.75L97.19 5.75 97.19 1.8 123.39 1.8 123.39 5.75ZM134.24 0L130.04 0 130.04-35 141.54-35Q145.64-35 148.29-33.65 150.94-32.3 152.22-30 153.49-27.7 153.49-24.8L153.49-24.8Q153.49-21.95 152.24-19.65 150.99-17.35 148.34-15.98 145.69-14.6 141.54-14.6L141.54-14.6 134.24-14.6 134.24 0ZM134.24-31.5L134.24-18.15 141.44-18.15Q145.64-18.15 147.42-19.93 149.19-21.7 149.19-24.8L149.19-24.8Q149.19-27.95 147.42-29.73 145.64-31.5 141.44-31.5L141.44-31.5 134.24-31.5ZM174.89 0.6L174.89 0.6Q169.74 0.6 165.86-1.68 161.99-3.95 159.81-8.05 157.64-12.15 157.64-17.5L157.64-17.5Q157.64-22.85 159.81-26.93 161.99-31 165.86-33.3 169.74-35.6 174.89-35.6L174.89-35.6Q180.09-35.6 183.96-33.3 187.84-31 189.99-26.93 192.14-22.85 192.14-17.5L192.14-17.5Q192.14-12.15 189.99-8.05 187.84-3.95 183.96-1.68 180.09 0.6 174.89 0.6ZM174.89-3.1L174.89-3.1Q178.74-3.1 181.66-4.83 184.59-6.55 186.21-9.78 187.84-13 187.84-17.5L187.84-17.5Q187.84-22 186.21-25.2 184.59-28.4 181.66-30.13 178.74-31.85 174.89-31.85L174.89-31.85Q171.04-31.85 168.11-30.13 165.19-28.4 163.56-25.2 161.94-22 161.94-17.5L161.94-17.5Q161.94-13 163.56-9.78 165.19-6.55 168.11-4.83 171.04-3.1 174.89-3.1ZM202.39 0L198.19 0 198.19-35 209.49-35Q213.59-35 216.19-33.65 218.79-32.3 220.04-29.95 221.29-27.6 221.29-24.75L221.29-24.75Q221.29-21.45 219.51-18.8 217.74-16.15 213.99-15.05L213.99-15.05 221.64 0 216.69 0 209.59-14.45 209.29-14.45 202.39-14.45 202.39 0ZM202.39-31.45L202.39-17.75 209.19-17.75Q213.24-17.75 215.09-19.7 216.94-21.65 216.94-24.7L216.94-24.7Q216.94-27.8 215.11-29.63 213.29-31.45 209.14-31.45L209.14-31.45 202.39-31.45ZM240.23 0L236.03 0 236.03-31.55 225.58-31.55 225.58-35 250.68-35 250.68-31.55 240.23-31.55 240.23 0ZM254.08 0L249.68 0 262.58-35 267.03-35 279.88 0 275.43 0 272.23-9 257.33-9 254.08 0ZM264.78-29.7L258.58-12.4 270.98-12.4 264.78-29.7ZM305.58 0L285.08 0 285.08-35 289.28-35 289.28-3.35 305.58-3.35 305.58 0Z" opacity="1" transform="matrix(1,0,0,1,0,0)" fill="#3b82f6" class="wordmark-text-0" data-fill-palette-color="primary" id="text-0"></path></svg></g></svg></g></svg></g></svg></g><g><svg viewBox="0 0 61.739247346340264 54.97346844818405" height="54.97346844818405" width="61.739247346340264"><g><svg xmlns="http://www.w3.org/2000/svg" xmlns:xlink="http://www.w3.org/1999/xlink" version="1.1" x="0" y="0" viewBox="1.2268330579637587 6.57 97.55016694203624 86.86000000000001" style="enable-background:new 0 0 100 100;" xml:space="preserve" height="54.97346844818405" width="61.739247346340264" class="icon-icon-0" data-fill-palette-color="accent" id="icon-0"><path d="M98.727 26C98.727 23.16 96.417 20.86 93.587 20.86H66.167V13.7C66.167 9.77 62.967 6.57 59.037 6.57H40.967C37.037 6.57 33.837 9.77 33.837 13.7V20.86H6.407C3.577 20.86 1.277 23.16 1.277 25.99L1.227 50.93C1.217 51.7 1.657 52.4 2.347 52.73 3.487 53.28 4.637 53.81 5.817 54.31V88.3C5.817 91.13 8.117 93.43 10.957 93.43H89.047C91.877 93.43 94.187 91.13 94.187 88.3V53.78C95.387 53.24 96.557 52.66 97.707 52.05 98.367 51.71 98.777 51.02 98.777 50.28zM37.837 13.7C37.837 11.98 39.237 10.57 40.967 10.57H59.037C60.727 10.57 62.167 12.01 62.167 13.7V20.86H37.837zM55.367 60.09V64.7H44.627V57.5H55.367zM91.047 50.82C81.887 54.8 71.257 57.18 59.367 57.91V57.24C59.367 55.18 57.697 53.5 55.637 53.5H44.367C42.307 53.5 40.627 55.18 40.627 57.24V57.94C28.767 57.29 18.027 55 8.607 51.14 7.457 50.67 6.337 50.18 5.227 49.67L5.277 26C5.277 25.38 5.797 24.86 6.407 24.86H93.587C94.207 24.86 94.727 25.38 94.727 26L94.777 49.07A80 80 0 0 1 91.047 50.82" fill="#00d991" data-fill-palette-color="accent"></path></svg></g></svg></g></svg></g><defs></defs></svg><rect width="395.52" height="46.2669139430869" fill="none" stroke="none" visibility="hidden"></rect></g></svg></g></svg>